<svg width="17" height="17" viewBox="0 0 17 17" fill="none" xmlns="http://www.w3.org/2000/svg">
<path d="M1.75738 0.906164L2.37065 0.292892C2.76118 -0.0976326 3.39434 -0.0976332 3.78486 0.292891L6.37065 2.87868C6.76118 3.2692 6.76118 3.90237 6.37065 4.29289L4.57824 6.0853C4.27936 6.38419 4.20526 6.84079 4.39429 7.21885C5.48705 9.40436 7.25918 11.1765 9.44469 12.2693C9.82275 12.4583 10.2794 12.3842 10.5782 12.0853L12.3707 10.2929C12.7612 9.90237 13.3943 9.90237 13.7849 10.2929L16.3707 12.8787C16.7612 13.2692 16.7612 13.9024 16.3707 14.2929L15.7574 14.9062C13.646 17.0175 10.3035 17.2551 7.91474 15.4635L6.70633 14.5572C4.9628 13.2496 3.41398 11.7007 2.10633 9.95721L1.20002 8.7488C-0.591519 6.36008 -0.353973 3.01752 1.75738 0.906164Z" fill="#27A800"/>
</svg>
