<svg width="23" height="24" viewBox="0 0 23 24" fill="none" xmlns="http://www.w3.org/2000/svg">
<path d="M6.53888 4.97988C6.32607 4.94556 6.10983 4.99145 5.92447 5.10586H5.90845C5.47939 5.35758 5.09266 5.67789 4.76314 6.04402C4.48854 6.36439 4.3398 6.68471 4.3009 6.99363C4.27801 7.1767 4.29403 7.35987 4.34781 7.5315L4.3684 7.54281C4.67618 8.45815 5.08008 9.32775 5.57207 10.1516C6.20708 11.3072 6.9874 12.3713 7.89588 13.3209L7.92219 13.3667L7.96567 13.3896L7.99199 13.4239L8.02402 13.4582C8.98169 14.3621 10.0515 15.1516 11.2071 15.7924C12.5286 16.5018 13.3307 16.8449 13.8124 16.9822V16.9937C13.9531 17.0394 14.0813 17.0624 14.2105 17.0624C14.6213 17.0281 15.0092 16.8564 15.3135 16.5818C15.6854 16.25 15.9989 15.861 16.2449 15.4376V15.4262C16.476 14.9914 16.3971 14.5795 16.0652 14.3049C15.3982 13.7214 14.6785 13.2065 13.9131 12.7603C13.4016 12.4857 12.881 12.6459 12.6705 12.9319L12.2208 13.504C11.9897 13.7786 11.571 13.7443 11.571 13.7443H11.5584C8.43478 12.9548 7.60068 9.78548 7.60068 9.78548C7.60068 9.78548 7.56178 9.36206 7.85125 9.13322L8.41418 8.68698C8.6842 8.46959 8.87185 7.9433 8.58238 7.42842C8.14073 6.66183 7.62471 5.941 7.04118 5.27738C6.91418 5.12864 6.73568 5.01421 6.5366 4.97988H6.53888Z" fill="#27A800"/>
<path d="M11.8181 3.60693C11.5023 3.60693 11.246 3.85865 11.246 4.17902C11.246 4.49939 11.5023 4.7511 11.8181 4.7511C13.2655 4.7511 14.4669 5.22016 15.4165 6.12405C15.9062 6.62749 16.2861 7.21102 16.5367 7.85176C16.7873 8.50393 16.9017 9.19046 16.8719 9.87696C16.8582 10.1859 17.1042 10.4605 17.4188 10.472C17.7346 10.4834 18.0012 10.2431 18.0149 9.92277C18.0516 9.07609 17.9108 8.22935 17.603 7.43987C17.2953 6.6504 16.8262 5.9296 16.2255 5.32319L16.214 5.31174C15.0355 4.17901 13.5412 3.60693 11.8181 3.60693Z" fill="#27A800"/>
<path d="M11.7793 5.4834C11.4635 5.4834 11.2072 5.74656 11.2072 6.05548C11.2072 6.37585 11.4635 6.62757 11.7793 6.62757H11.7987C12.8422 6.70766 13.6019 7.05091 14.134 7.62299C14.6797 8.21796 14.9624 8.93873 14.9406 9.85406C14.9338 10.163 15.1843 10.4262 15.5001 10.4376C15.8159 10.4376 16.0779 10.1859 16.0848 9.87697C16.1122 8.68703 15.7312 7.6687 14.9727 6.84489H14.9715C14.1981 6.00965 13.1363 5.57494 11.8559 5.49485L11.8365 5.4834H11.7793Z" fill="#27A800"/>
<path d="M11.7574 7.4055C11.4427 7.38262 11.1727 7.63444 11.1567 7.94336C11.1395 8.26373 11.3821 8.52678 11.6979 8.54967C12.1761 8.57255 12.4816 8.70992 12.6739 8.90443C12.8672 9.09894 13.0114 9.4193 13.0377 9.89985C13.0537 10.2202 13.3238 10.4605 13.6395 10.449C13.9542 10.4261 14.1968 10.163 14.1796 9.84259C14.143 9.15608 13.9279 8.54979 13.4874 8.10356C13.0446 7.65734 12.4416 7.43982 11.7574 7.4055Z" fill="#27A800"/>
<path fill-rule="evenodd" clip-rule="evenodd" d="M5.51146 0.60927C9.15221 -0.20309 12.928 -0.20309 16.5687 0.60927L16.9566 0.700754C19.1271 1.1813 20.8399 2.8518 21.3868 5.00284C22.3102 8.6413 22.3102 12.4629 21.3868 16.1014C20.8399 18.2639 19.1271 19.9229 16.9566 20.4035L16.5687 20.4949C14.2815 21.0098 11.9417 21.1929 9.61445 21.067L6.57897 23.7787C6.34556 23.9961 6.01833 24.0533 5.72313 23.9504C5.42794 23.8474 5.21169 23.5956 5.1602 23.2866L4.65791 20.2889C2.71053 19.6825 1.20023 18.1037 0.693367 16.1014C-0.231122 12.4629 -0.231122 8.6413 0.693367 5.00284C1.24028 2.8518 2.95309 1.1813 5.12358 0.700754L5.51146 0.60927ZM16.1946 2.29117C12.7998 1.52457 9.28035 1.52457 5.8856 2.29117L5.49773 2.37134C3.95882 2.71459 2.74486 3.90443 2.35698 5.42618C1.50229 8.79004 1.50229 12.3142 2.35698 15.678C2.74486 17.2112 3.95882 18.3896 5.49773 18.7329L5.59956 18.7558C5.94052 18.8359 6.2014 19.1105 6.25975 19.4537L6.59613 21.4675L8.73802 19.5453C8.91079 19.3966 9.13963 19.3164 9.37075 19.3279C11.6522 19.4881 13.9509 19.3165 16.1946 18.8245L16.5824 18.7329C18.1202 18.3896 19.3353 17.2112 19.7232 15.678C20.5768 12.3142 20.5768 8.79004 19.7232 5.42618C19.3353 3.90443 18.1202 2.71459 16.5824 2.37134L16.1946 2.29117Z" fill="#27A800"/>
</svg>
