<svg width="25" height="24" viewBox="0 0 25 24" fill="none" xmlns="http://www.w3.org/2000/svg">
<path d="M8.23034 6.25601C8.45178 6.25601 8.69717 6.26804 8.93071 6.78835C9.08559 7.13926 9.34648 7.76847 9.55896 8.28878C9.72437 8.68809 9.86038 9.02694 9.89438 9.08744C9.97218 9.24475 10.0201 9.42619 9.91834 9.6319C9.90636 9.6561 9.89511 9.68037 9.88409 9.70457C9.80254 9.87398 9.74445 9.99497 9.60711 10.1523C9.55073 10.2128 9.49192 10.2854 9.43335 10.358C9.33026 10.479 9.22802 10.612 9.14017 10.6967C8.98456 10.854 8.8229 11.0114 9.00247 11.326C9.18216 11.6406 9.81065 12.657 10.7385 13.4799C11.7359 14.3632 12.6033 14.7382 13.0418 14.9318C13.1269 14.9681 13.1958 14.9924 13.2464 15.0166C13.5578 15.1739 13.7433 15.1497 13.9228 14.944C14.1025 14.7383 14.701 14.0364 14.9106 13.7218C15.1141 13.4193 15.3235 13.4677 15.6109 13.5766C15.8982 13.6734 17.4303 14.4358 17.7413 14.581C17.803 14.6173 17.8611 14.6415 17.9144 14.6657C18.1309 14.7746 18.2774 14.8472 18.3403 14.944C18.4177 15.0771 18.4177 15.6941 18.1612 16.4202C17.8974 17.1583 16.6285 17.8481 16.0538 17.9086C15.9994 17.9086 15.9453 17.9207 15.8895 17.9207C15.3629 17.9812 14.6945 18.0659 12.3126 17.1342C9.37781 15.9726 7.44055 13.1168 7.04887 12.536C7.01801 12.4876 6.99672 12.4514 6.98534 12.4393L6.97869 12.4271C6.80045 12.1972 5.71033 10.7331 5.71033 9.23264C5.71033 7.7927 6.41965 7.04251 6.74321 6.6916C6.76366 6.6795 6.78266 6.65524 6.79984 6.63104C7.0871 6.32853 7.42228 6.2439 7.63186 6.2439C7.84131 6.2439 8.0509 6.24391 8.23034 6.25601Z" fill="#27A800"/>
<path fill-rule="evenodd" clip-rule="evenodd" d="M0.121122 23.3899C0.0221415 23.7529 0.349458 24.0796 0.710047 23.9828L6.28503 22.5308C8.0449 23.4867 10.0262 23.9949 12.0435 23.9949H12.0495C18.6876 23.9949 24.0989 18.6104 24.0989 12.0036C24.0989 8.79699 22.8477 5.78398 20.5728 3.50912C18.2992 1.24636 15.2758 0 12.0494 0C5.41127 0 7.11018e-07 5.38469 7.11018e-07 11.9915C-0.000725308 14.0969 0.554563 16.166 1.6102 17.9811L0.121122 23.3899ZM3.36002 18.4651C3.48925 18.0053 3.42476 17.497 3.18081 17.0735C2.28527 15.5247 1.81444 13.7823 1.81505 11.9915C1.81505 6.38901 6.40507 1.81505 12.0494 1.81505C14.796 1.81505 17.359 2.87984 19.2926 4.80379C21.2251 6.72774 22.2838 9.281 22.2838 12.0036C22.2838 17.606 17.6942 22.1798 12.0495 22.1798H12.0435C10.3294 22.1798 8.64508 21.7443 7.1496 20.9336C6.74472 20.7158 6.27184 20.6553 5.82643 20.7763L2.48384 21.6475L3.36002 18.4651Z" fill="#27A800"/>
</svg>
