<svg width="60" height="60" viewBox="0 0 60 60" fill="none" xmlns="http://www.w3.org/2000/svg">
<path fill-rule="evenodd" clip-rule="evenodd" d="M15.57 16.8682C19.1654 19.6728 19.2043 22.4389 20.0466 26.4294C20.6863 29.458 22.6992 32.856 25.8042 33.6652C28.119 34.3906 29.0947 34.0402 31.1733 34.2536C21.1044 37.2975 13.7554 26.8047 7.28838 20.7953C6.66853 20.2192 6.08991 19.5109 5.44246 18.9699C6.77962 21.5619 8.53933 23.5174 10.2036 25.8953C8.1035 26.0892 6.77212 26.9956 4.97424 27.9043C2.27197 25.717 0.536794 22.5558 0.142187 19.1012C-0.00809077 17.7698 0.0747164 15.3841 0.357893 14.0687C4.74116 13.4016 8.10247 13.6361 11.8366 16.3763C13.8311 17.84 15.5288 20.2315 16.2481 22.5926C17.0684 25.2851 16.7487 26.0371 18.7957 28.2517L18.7637 28.1399C18.517 27.256 18.3394 25.6584 18.1745 24.7111C17.6258 21.5632 16.9995 20.271 15.3277 17.6702C15.1188 17.5019 14.6445 16.9715 14.3698 16.7288C13.444 15.9104 12.633 15.4556 11.5575 14.8537C12.8074 15.1352 14.6908 15.9032 15.57 16.8682ZM34.6178 30.3319C35.3164 36.4368 32.9402 39.404 29.3325 44.0537C28.6234 44.9683 27.5581 45.9551 26.728 46.7977L21.347 52.1905C20.7418 52.8064 19.7587 53.7581 19.2343 54.4095C19.5048 54.3062 20.2552 54.0141 20.4597 53.875C21.761 52.9912 24.7059 50.8642 25.6383 49.7431C26.4258 52.3374 26.6885 52.8269 27.8822 55.1301C23.6659 59.4475 19.8882 60.8184 13.9272 59.5432C13.6103 56.3009 13.3625 54.189 14.7171 51.0905C15.264 49.8399 15.5482 49.2335 16.4478 48.1046C18.2518 45.8419 20.5408 44.3039 23.3238 43.5162C25.9136 42.783 26.0952 43.1065 28.2891 41.2832C25.0269 41.8262 19.7277 42.4149 17.3618 45.045C16.3769 46.0553 15.4961 47.1614 14.7317 48.3472C15.157 47.1559 15.9142 45.3381 16.8448 44.4771C16.9211 44.3189 17.6129 43.5308 17.7833 43.3458C21.5021 39.3113 27.916 41.2992 31.8221 37.2709C33.6193 35.4173 34.1526 33.2555 34.1693 30.7768C34.0947 30.0831 34.1758 29.0789 34.2539 28.386C34.4345 29.0585 34.5582 29.6366 34.6178 30.3319ZM25.3336 29.5701C25.2597 28.8983 25.1571 27.6136 25.2024 26.9455C25.5943 21.1839 30.5692 16.0109 34.3997 12.1091C36.1257 10.3512 37.6199 8.88245 39.3814 7.23369C39.4597 6.76875 39.3875 6.81511 38.9956 6.68422C37.8108 7.50093 35.4152 9.16434 34.4202 10.1164C33.7182 8.21947 33.1661 6.8342 32.183 5.05489C34.2815 2.23561 37.2989 0.747403 40.7298 0.142371C43.0436 -0.265983 44.2264 0.327801 46.1503 0.388134C46.2989 2.6409 46.5521 4.69801 45.9929 6.92555C45.0486 10.686 42.4056 14.0056 38.9537 15.7645C36.9623 16.7792 33.2421 16.7847 31.9755 18.6553L32.0344 18.7477C32.3026 18.7378 33.4885 18.4955 33.8964 18.4331C37.6281 17.8608 39.6683 17.2697 42.6704 15.0582C44.3521 13.4333 44.04 13.4067 45.2722 11.8459C45.0111 12.4509 44.0182 14.7173 43.5189 15.0292C40.7747 18.8241 38.4841 19.1363 34.2044 19.9574C30.4884 20.6709 26.9093 22.6881 26.1027 26.6476C25.8737 27.5917 25.8591 28.4197 25.811 29.383C25.8179 30.2096 25.78 30.5855 25.6577 31.4074C25.4819 30.6943 25.4123 30.3094 25.3336 29.5701ZM43.6167 42.4776C41.2409 40.6199 40.4026 36.4446 39.9596 33.6226C39.7296 32.8226 39.5218 32.1208 39.2437 31.3371C38.0963 29.0166 36.9926 27.3664 34.4287 26.3738C32.778 25.7351 30.3218 26.1806 29.3042 25.8036L29.3087 25.7075C30.0338 25.4276 30.5903 25.4607 31.327 25.3768C33.5495 25.1239 35.7502 25.4845 37.805 26.4676C43.1979 29.0479 47.5274 34.1759 51.7464 38.2833C52.6191 39.1327 53.699 40.4532 54.6146 41.0773C54.1144 39.8274 50.8897 35.5032 49.9062 34.4066C51.3944 33.8923 52.7993 33.3302 54.2043 32.6164C54.4684 32.4824 54.7782 32.3332 55.0532 32.2251C59.3121 35.5277 60.6571 40.7262 59.7135 45.8917C55.6683 46.7912 52.4783 46.4435 48.9708 44.203C46.1704 42.4162 44.1879 39.5963 43.4535 36.356C43.0381 34.4465 42.8544 33.3544 41.2528 31.9585C42.0758 35.4033 42.0032 38.3923 44.0972 41.5965C44.7655 42.5662 45.2493 43.1276 46.2389 43.7902C46.7893 44.1891 47.5475 44.6901 47.9864 45.1857C47.1597 44.8016 46.4795 44.4911 45.6992 44.0254C44.9979 43.5816 44.179 43.0826 43.6167 42.4776ZM41.9204 27.2332C40.7274 26.4403 39.5292 25.655 38.326 24.8778C40.298 25.4753 40.8903 25.7865 42.7018 26.7495C42.9342 26.6755 42.8953 26.1209 42.911 25.8111C43.0436 23.2001 43.3172 20.888 44.8799 18.6806C46.6632 16.1854 49.3661 14.5033 52.3914 14.0053C50.9858 14.9416 49.7093 15.3462 48.2995 16.6538C47.0793 17.7855 45.9963 19.3534 45.6487 21.0673C45.6347 21.1372 45.6739 21.1433 45.7475 21.2173C45.8528 21.1839 45.9414 21.1545 46.0161 21.068C46.8867 20.0563 47.6633 19.1216 48.8165 18.3918C52.2286 16.2325 55.8724 15.8425 59.7687 16.6654C59.8293 17.752 59.9667 18.8118 59.9834 19.9145C60.0099 23.2249 58.8295 26.6288 56.5024 29.0183C54.0925 31.4922 51.9992 32.4426 48.6628 33.0909C47.8589 32.4814 47.252 31.7615 46.6397 30.9741C47.6971 29.8053 48.7449 28.5284 49.7805 27.3313C50.2824 26.7512 51.3777 25.5445 51.7372 24.9951C51.7716 24.6498 51.9379 24.5301 51.8629 24.2942C51.5303 24.4875 51.3289 24.6092 50.9558 24.7135C49.3085 26.063 46.5681 28.6004 44.9546 29.6216C43.9217 28.9259 42.9113 28.0032 41.9204 27.2332ZM45.187 50.9869C43.5322 48.0616 41.781 46.4745 38.5236 45.4649C39.7524 46.6637 41.1298 47.9682 42.0035 49.4564C43.8055 52.5249 44.0877 56.0508 43.5142 59.5109C40.3491 60.3538 36.5809 60.1268 33.7253 58.4647C30.6915 56.6991 28.2775 54.0519 27.4133 50.5891C27.2525 49.9459 27.1053 49.3047 26.9587 48.6571C27.6134 47.9212 28.2697 47.2766 28.9406 46.5673C30.6653 48.1642 33.0053 49.9653 34.8594 51.5889C35.2029 51.702 35.5713 52.1162 35.8824 52.0599C35.8398 51.7266 35.5815 51.3537 35.4026 51.0472C35.2165 50.7418 33.803 49.1803 33.4718 48.8009C32.4318 47.5929 31.4037 46.375 30.3872 45.1469C30.8704 44.3581 31.7233 43.4749 32.3159 42.616C32.8373 41.9523 33.2765 41.3251 33.7587 40.6315C34.2709 39.7197 34.7722 38.8021 35.2625 37.8787C35.0894 38.5239 34.7994 39.4006 34.5456 40.007C34.185 40.9243 33.5168 42.2052 33.2356 42.9899L33.3096 42.9977C34.23 43.085 35.2963 43.0785 36.2443 43.1048C39.64 43.1985 43.72 45.8784 44.9399 49.1793C45.6889 50.3563 46.1916 52.2133 46.3013 53.5952C45.9149 52.5746 45.6225 51.9597 45.187 50.9869ZM10.4735 44.2545C12.8176 42.7871 13.8645 40.8963 14.5992 38.3392C13.0572 40.2054 11.8509 41.4611 9.6274 42.5614C6.81608 43.9522 3.2118 44.2252 0.227378 43.238C-0.266391 39.5083 -0.0421664 36.8387 1.76389 33.4358C3.03631 31.0382 5.66327 28.9177 8.13416 27.8225C8.61771 27.6084 10.5884 27.1009 11.2184 26.9192C12.1777 27.6793 12.5634 28.0482 13.3281 28.9995C11.5636 31.2809 9.54902 33.6066 7.64823 35.7748L7.81146 36.0683C8.03466 36.1256 8.02512 36.1205 8.23912 36.0881C9.98214 34.514 13.4787 31.9108 14.7522 30.2137C15.5618 30.8548 16.3746 31.4916 17.1907 32.1242C18.0419 32.6737 19.1975 33.4648 20.0088 34.0756C20.6597 34.395 21.3678 34.9636 22.0405 35.3372C21.2312 35.0914 20.0749 34.7212 19.3045 34.3671C18.7821 34.0889 17.5526 33.4157 17.0408 33.2279C17.0977 38.4806 15.9074 42.617 10.7584 45.0583C9.2989 45.8429 8.33453 46.0376 6.72544 46.1494C8.3836 45.4693 8.97381 45.2928 10.4735 44.2545ZM14.8524 10.4637C14.331 9.4084 13.9255 7.5057 13.6951 6.32461C14.2928 7.91371 14.8674 9.3542 15.8113 10.7701C17.2728 12.4445 19.3876 14.1682 21.6121 14.6141C20.6154 13.6569 19.6923 12.8242 18.8359 11.7317C16.2464 8.43012 15.9827 4.48599 16.4839 0.45733C21.0427 -0.264959 24.6201 -0.120774 28.3617 2.98585C31.2357 5.37258 32.0317 7.64307 33.1556 11.0964C32.5378 11.969 31.8494 12.667 31.0864 13.4088C30.0335 12.6585 28.8462 11.6073 27.8516 10.7579C26.2915 9.42953 24.7393 8.09232 23.1946 6.74591C23.0171 6.80522 22.9674 6.79943 22.8539 6.946C24.2885 8.44682 25.7463 10.3355 27.1203 11.9274C27.7411 12.6463 29.2214 14.3277 29.645 15.0306C28.2646 16.7022 27.5834 17.5595 26.3566 19.3579C25.9671 19.9908 25.1598 21.4323 24.7986 21.9355C25.074 20.9262 25.5384 19.8927 25.9566 18.9342C26.2305 18.3942 26.5386 17.6559 26.7924 17.0908C24.6208 17.0417 22.8365 17.0652 20.7875 16.273C17.971 15.1843 16.0662 13.1841 14.8524 10.4637Z" fill="#27A800"/>
</svg>
